:SAMPLES-PER-SECOND 30
:FRAME-RANGE 1-2009
:FULLY-SPECIFIED
:DEGREES
1319
root  -80.4651 38.268 -20.082 7.31754 -14.5554 -1.86467
RightUpLeg  -1.56976 -2.12069 -1.76203
RightLeg  29.49 3.45203 1.87256
RightFoot  -18.8627 0.428438 8.45372
RightToes  2.96424e-010 1.2921e-014 -6.02303e-014
Spine  1.73543 2.22765 11.7719
Spine1  3.57648 3.06711 -3.9788
HEad  11.9973 31.512 -2.66931
LeftShoulder1  -0.0194725 3.41414 -10.5499
LeftArm  -20.2872 12.2229 -16.8383
LeftForeArm  -33.5324 -1.13364 -2.11015
LeftHand  -0.13909 6.38175 -10.635
RightShoulder  1.56979 2.08304 22.9346
RightArm  -29.4315 4.3833 28.4881
RightForeArm  40.8414 5.84377 3.59723
RightHand  -0.0729082 -5.03761 -21.0163
LeftUpLeg  -31.4004 0.889395 -5.31489
LeftLeg  39.3902 5.10692 4.85719
LeftFoot  -11.5418 0.0692559 -0.0186152
LeftToes  -1.2485e-010 1.20979e-011 -1.0929e-011
1320
root  -80.9549 38.8057 -17.441 8.20251 -12.4375 -1.53137
RightUpLeg  2.21566 -4.0059 -3.14922
RightLeg  27.2057 6.43357 3.35391
RightFoot  -12.4527 0.0209843 10.8769
RightToes  2.96424e-010 1.2921e-014 -6.02303e-014
Spine  -0.174488 2.87882 11.3681
Spine1  4.68988 3.67531 -4.82579
HEad  11.3034 30.4387 -2.43096
LeftShoulder1  -0.0751376 3.75453 -9.49052
LeftArm  -19.0806 13.3636 -16.0662
LeftForeArm  -32.6202 -2.86095 -2.729
LeftHand  -0.0799096 5.73706 -11.7701
RightShoulder  1.66022 2.55342 22.1034
RightArm  -28.9089 4.77222 29.2825
RightForeArm  38.4409 10.7462 4.45826
RightHand  -0.174143 -4.40761 -19.4416
LeftUpLeg  -29.4949 -0.586971 -6.15729
LeftLeg  21.5377 8.10386 3.83509
LeftFoot  -11.772 0.0656435 -1.32603
LeftToes  -1.2485e-010 1.20979e-011 -1.0929e-011
1321
root  -81.4084 38.9777 -14.7639 8.45267 -9.70288 -1.37698
RightUpLeg  5.59966 -3.70897 -3.60815
RightLeg  27.0873 7.83108 4.10585
RightFoot  -6.7168 -0.547489 12.3774
RightToes  2.96424e-010 1.2921e-014 -6.02303e-014
Spine  -1.65801 2.98144 10.4241
Spine1  5.95653 3.54007 -4.2328
HEad  9.95574 29.4746 -4.00551
LeftShoulder1  -0.0152634 3.39671 -9.18793
LeftArm  -17.6805 13.6459 -15.2418
LeftForeArm  -33.6558 -2.67969 -3.09845
LeftHand  -0.0107524 5.11589 -12.8133
RightShoulder  1.68159 2.79458 21.2869
RightArm  -26.962 5.76979 29.8904
RightForeArm  34.9448 14.4867 4.49578
RightHand  -0.201239 -4.20023 -18.6785
LeftUpLeg  -27.9181 -4.66558 -5.66486
LeftLeg  9.13725 14.3842 2.83412
LeftFoot  -8.16064 0.0470316 0.0728123
LeftToes  -1.2485e-010 1.20979e-011 -1.0929e-011
1322
root  -81.8288 38.6046 -12.1519 8.3033 -6.8549 -1.59734
RightUpLeg  7.39933 -1.42281 -2.83469
RightLeg  30.9614 8.64431 5.32718
RightFoot  -2.8752 -0.947537 12.4897
RightToes  2.96424e-010 1.2921e-014 -6.02303e-014
Spine  -2.13341 2.70265 9.68237
Spine1  6.27134 3.02227 -3.43335
HEad  8.4996 29.2163 -6.04091
LeftShoulder1  0.0446581 3.02732 -8.94501
LeftArm  -16.0912 13.1533 -14.9283
LeftForeArm  -34.3037 -1.51764 -3.5542
LeftHand  0.0677203 4.50329 -13.7042
RightShoulder  1.65978 2.83925 20.6918
RightArm  -25.4507 6.53494 30.6892
RightForeArm  32.2349 17.4001 4.09849
RightHand  -0.226274 -4.02426 -18.4138
LeftUpLeg  -28.2765 -5.47786 -5.95506
LeftLeg  6.72636 16.1677 2.46839
LeftFoot  -8.3653 0.0251198 0.969446
LeftToes  -1.2485e-010 1.20979e-011 -1.0929e-011
1323
root  -82.2369 37.9475 -9.76587 7.72974 -5.21693 -1.50536
RightUpLeg  7.40439 0.570048 -3.10258
RightLeg  38.0114 10.972 8.82045
RightFoot  0.58791 -1.6351 15.5996
RightToes  2.96424e-010 1.2921e-014 -6.02303e-014
Spine  -1.19098 2.49284 8.44368
Spine1  6.57382 2.9138 -3.34986
HEad  7.10926 29.3164 -7.55579
LeftShoulder1  0.160056 2.27438 -8.26578
LeftArm  -15.2473 13.5019 -15.9089
LeftForeArm  -34.2301 -1.19136 -3.92185
LeftHand  0.0907001 4.31184 -13.5685
RightShoulder  1.66071 2.94718 20.2091
RightArm  -25.8247 7.30472 31.7428
RightForeArm  30.9814 18.8167 3.77947
RightHand  -0.212068 -4.1043 -18.2573
LeftUpLeg  -30.1635 -3.65323 -7.25596
LeftLeg  13.3012 13.5865 3.624
LeftFoot  -4.15268 -0.157137 2.90003
LeftToes  -1.2485e-010 1.20979e-011 -1.0929e-011
1324
root  -82.5259 36.9354 -7.5375 6.59955 -4.87633 -1.25319
RightUpLeg  5.02103 1.65294 -4.78005
RightLeg  49.0132 11.2178 13.1972
RightFoot  2.62955 -2.41867 19.7084
RightToes  2.96424e-010 1.2921e-014 -6.02303e-014
Spine  0.909263 2.26586 8.03612
Spine1  6.35934 2.9406 -4.07055
HEad  4.16345 30.0129 -9.83928
LeftShoulder1  0.16141 2.32707 -9.35622
LeftArm  -14.891 12.1391 -16.4916
LeftForeArm  -33.9498 -0.804962 -4.22791
LeftHand  0.0613556 4.47345 -12.2688
RightShoulder  1.70861 3.07603 20.4441
RightArm  -27.9311 8.7115 33.4299
RightForeArm  32.0277 18.5027 3.61057
RightHand  -0.263541 -3.82406 -18.8658
LeftUpLeg  -33.7504 1.68514 -10.0415
LeftLeg  27.881 8.26152 5.0529
LeftFoot  -4.19616 -0.621809 10.3352
LeftToes  -1.2485e-010 1.20979e-011 -1.0929e-011
1325
root  -82.7802 36.3206 -5.42854 5.74928 -4.13661 0.925644
RightUpLeg  0.349107 2.41659 -8.1461
RightLeg  59.5845 7.42251 12.9732
RightFoot  -2.66911 -1.24639 16.0979
RightToes  2.96424e-010 1.2921e-014 -6.02303e-014
Spine  1.70817 2.21048 5.81641
Spine1  8.17841 3.07509 -5.02813
HEad  3.84842 30.4763 -10.868
LeftShoulder1  0.179971 2.35524 -12.0721
LeftArm  -15.3319 6.853 -17.9372
LeftForeArm  -34.1057 0.758307 -4.489
LeftHand  -0.0965989 6.12955 -8.33988
RightShoulder  1.91231 3.75697 20.7888
RightArm  -30.8567 8.13583 34.7114
RightForeArm  33.4286 16.166 3.46918
RightHand  -0.367839 -3.35326 -20.5128
LeftUpLeg  -33.5326 3.39461 -13.0035
LeftLeg  35.4097 7.12711 5.78044
LeftFoot  -8.34093 -0.293302 13.062
LeftToes  -1.2485e-010 1.20979e-011 -1.0929e-011
